<?xml version="1.0" encoding="UTF-8" standalone="no"?>
<!-- Created with Inkscape (http://www.inkscape.org/) -->

<svg
   xmlns:ns0="http://www.iki.fi/pav/software/textext/"
   xmlns:dc="http://purl.org/dc/elements/1.1/"
   xmlns:cc="http://creativecommons.org/ns#"
   xmlns:rdf="http://www.w3.org/1999/02/22-rdf-syntax-ns#"
   xmlns:svg="http://www.w3.org/2000/svg"
   xmlns="http://www.w3.org/2000/svg"
   xmlns:sodipodi="http://sodipodi.sourceforge.net/DTD/sodipodi-0.dtd"
   xmlns:inkscape="http://www.inkscape.org/namespaces/inkscape"
   width="99.11689mm"
   height="16.491072mm"
   viewBox="0 0 351.20158 58.432932"
   id="svg2"
   version="1.1"
   inkscape:version="0.91 r"
   sodipodi:docname="ellenallassor.svg">
  <sodipodi:namedview
     id="base"
     pagecolor="#ffffff"
     bordercolor="#666666"
     borderopacity="1.0"
     inkscape:pageopacity="0.0"
     inkscape:pageshadow="2"
     inkscape:zoom="3.624522"
     inkscape:cx="127.18525"
     inkscape:cy="37.159004"
     inkscape:document-units="px"
     inkscape:current-layer="content"
     showgrid="false"
     inkscape:window-width="1366"
     inkscape:window-height="750"
     inkscape:window-x="0"
     inkscape:window-y="0"
     inkscape:window-maximized="1"
     fit-margin-top="0"
     fit-margin-left="0"
     fit-margin-right="0"
     fit-margin-bottom="0" />
  <defs
     id="defs4" />
  <metadata
     id="metadata7">
    <rdf:RDF>
      <cc:Work
         rdf:about="">
        <dc:format>image/svg+xml</dc:format>
        <dc:type
           rdf:resource="http://purl.org/dc/dcmitype/StillImage" />
        <dc:title></dc:title>
      </cc:Work>
    </rdf:RDF>
  </metadata>
  <g
     transform="translate(-117.1214,-270.05529)"
     inkscape:label="Layer 1"
     inkscape:groupmode="layer"
     id="layer1">
    <g
       style="font-style:normal;font-variant:normal;font-weight:normal;font-stretch:normal;letter-spacing:normal;word-spacing:normal;text-anchor:start;fill:none;fill-opacity:1;fill-rule:evenodd;stroke:#000000;stroke-width:1.0380522;stroke-linecap:butt;stroke-linejoin:miter;stroke-miterlimit:10.43299961;stroke-dasharray:none;stroke-dashoffset:0;stroke-opacity:1"
       id="content"
       transform="matrix(0.96344969,0,0,-0.96323562,27.872322,751.28429)"
       xml:space="preserve"
       stroke-miterlimit="10.433"
       font-style="normal"
       font-variant="normal"
       font-weight="normal"
       font-stretch="normal"
       font-size-adjust="none"
       letter-spacing="normal"
       word-spacing="normal"
       ns0:text="\\begin{tikzpicture}\n \\draw \n   (0,0) node[left] {jel}\n   (0,0) node[ocirc] {} -- (1,0) \n   to[R=10, *-*] (3,0)\n   to[R=33, *-*] (5,0)\n   to[R=51, *-*] (7,0)\n   to[R=220, *-*] (9,0)\n   to[R=510, *-*] (11,0)\n   -| (12,-1) node[ground] {}\n   (1,0) -- (1,-1)\n   (3,0) -- (3,-1)\n   (5,0) -- (5,-1)\n   (7,0) -- (7,-1)\n   (9,0) -- (9,-1)\n   (11,0) -- (11,-1)\n   (1,-1) to[ospst, -*] (3,-1)\n   (3,-1) to[ospst, *-*] (5,-1)\n   (5,-1) to[ospst, *-*] (7,-1)\n   (7,-1) to[ospst, *-*] (9,-1)\n   (9,-1) to[ospst, *-] (11,-1)\n;\n\\end{tikzpicture}"
       ns0:preamble="/home/oroszll1/Desktop/laborjegyzet/preamble.tex"><line
         style="stroke-width:0.4136638"
         x1="107.08"
         y1="483.35999"
         x2="135.42"
         y2="483.35999"
         id="line3342" /><line
         style="stroke-width:0.4136638"
         x1="135.42"
         y1="483.35999"
         x2="147.89999"
         y2="483.35999"
         id="line3344" /><line
         style="stroke-width:0.4136638"
         x1="179.64"
         y1="483.35999"
         x2="192.12"
         y2="483.35999"
         id="line3346" /><line
         style="stroke-width:0.4136638"
         x1="192.12"
         y1="483.35999"
         x2="204.59"
         y2="483.35999"
         id="line3348" /><line
         style="stroke-width:0.4136638"
         x1="236.34"
         y1="483.35999"
         x2="248.81"
         y2="483.35999"
         id="line3350" /><line
         style="stroke-width:0.4136638"
         x1="248.81"
         y1="483.35999"
         x2="261.28"
         y2="483.35999"
         id="line3352" /><line
         style="stroke-width:0.4136638"
         x1="293.03"
         y1="483.35999"
         x2="305.5"
         y2="483.35999"
         id="line3354" /><line
         style="stroke-width:0.4136638"
         x1="305.5"
         y1="483.35999"
         x2="317.98001"
         y2="483.35999"
         id="line3356" /><line
         style="stroke-width:0.4136638"
         x1="349.73001"
         y1="483.35999"
         x2="362.20001"
         y2="483.35999"
         id="line3358" /><line
         style="stroke-width:0.4136638"
         x1="362.20001"
         y1="483.35999"
         x2="374.67001"
         y2="483.35999"
         id="line3360" /><line
         style="stroke-width:0.4136638"
         x1="406.42001"
         y1="483.35999"
         x2="418.89001"
         y2="483.35999"
         id="line3362" /><polyline
         style="stroke-width:0.4136638"
         points="418.89,483.36 447.24,483.36 447.24,455.01 "
         id="polyline3364" /><line
         style="stroke-width:0.4136638"
         x1="135.42"
         y1="483.35999"
         x2="135.42"
         y2="455.01001"
         id="line3366" /><line
         style="stroke-width:0.4136638"
         x1="192.12"
         y1="483.35999"
         x2="192.12"
         y2="455.01001"
         id="line3368" /><line
         style="stroke-width:0.4136638"
         x1="248.81"
         y1="483.35999"
         x2="248.81"
         y2="455.01001"
         id="line3370" /><line
         style="stroke-width:0.4136638"
         x1="305.5"
         y1="483.35999"
         x2="305.5"
         y2="455.01001"
         id="line3372" /><line
         style="stroke-width:0.4136638"
         x1="362.20001"
         y1="483.35999"
         x2="362.20001"
         y2="455.01001"
         id="line3374" /><line
         style="stroke-width:0.4136638"
         x1="418.89001"
         y1="483.35999"
         x2="418.89001"
         y2="455.01001"
         id="line3376" /><line
         style="stroke-width:0.4136638"
         x1="135.42"
         y1="455.01001"
         x2="156.82001"
         y2="455.01001"
         id="line3378" /><line
         style="stroke-width:0.4136638"
         x1="170.71001"
         y1="455.01001"
         x2="192.12"
         y2="455.01001"
         id="line3380" /><line
         style="stroke-width:0.4136638"
         x1="192.12"
         y1="455.01001"
         x2="213.52"
         y2="455.01001"
         id="line3382" /><line
         style="stroke-width:0.4136638"
         x1="227.41"
         y1="455.01001"
         x2="248.81"
         y2="455.01001"
         id="line3384" /><line
         style="stroke-width:0.4136638"
         x1="248.81"
         y1="455.01001"
         x2="270.20999"
         y2="455.01001"
         id="line3386" /><line
         style="stroke-width:0.4136638"
         x1="284.10001"
         y1="455.01001"
         x2="305.5"
         y2="455.01001"
         id="line3388" /><line
         style="stroke-width:0.4136638"
         x1="305.5"
         y1="455.01001"
         x2="326.89999"
         y2="455.01001"
         id="line3390" /><line
         style="stroke-width:0.4136638"
         x1="340.79999"
         y1="455.01001"
         x2="362.20001"
         y2="455.01001"
         id="line3392" /><line
         style="stroke-width:0.4136638"
         x1="362.20001"
         y1="455.01001"
         x2="383.60001"
         y2="455.01001"
         id="line3394" /><line
         style="stroke-width:0.4136638"
         x1="397.48999"
         y1="455.01001"
         x2="418.89001"
         y2="455.01001"
         id="line3396" /><path
         style="fill:#ffffff;fill-rule:nonzero;stroke:#ffffff;stroke-width:0"
         inkscape:connector-curvature="0"
         d="m 108.66,483.36 0,0.08 -0.01,0.08 -0.01,0.08 -0.01,0.08 -0.02,0.08 -0.02,0.07 -0.02,0.08 -0.03,0.07 -0.03,0.07 -0.04,0.07 -0.04,0.06 -0.04,0.07 -0.04,0.06 -0.05,0.06 -0.05,0.06 -0.05,0.05 -0.06,0.05 -0.05,0.05 -0.06,0.05 -0.07,0.05 -0.06,0.04 -0.07,0.04 -0.07,0.03 -0.07,0.03 -0.07,0.03 -0.07,0.03 -0.08,0.02 -0.07,0.01 -0.08,0.02 -0.08,0.01 -0.08,0 -0.08,0.01 c -0.88,0 -1.59,-0.71 -1.59,-1.59 0,-0.88 0.71,-1.59 1.59,-1.59 0.87,0 1.58,0.71 1.58,1.59 z"
         id="path3398" /><path
         style="stroke-width:0.4136638"
         inkscape:connector-curvature="0"
         d="m 108.66,483.36 0,0.08 -0.01,0.08 -0.01,0.08 -0.01,0.08 -0.02,0.08 -0.02,0.07 -0.02,0.08 -0.03,0.07 -0.03,0.07 -0.04,0.07 -0.04,0.06 -0.04,0.07 -0.04,0.06 -0.05,0.06 -0.05,0.06 -0.05,0.05 -0.06,0.05 -0.05,0.05 -0.06,0.05 -0.07,0.05 -0.06,0.04 -0.07,0.04 -0.07,0.03 -0.07,0.03 -0.07,0.03 -0.07,0.03 -0.08,0.02 -0.07,0.01 -0.08,0.02 -0.08,0.01 -0.08,0 -0.08,0.01 c -0.88,0 -1.59,-0.71 -1.59,-1.59 0,-0.88 0.71,-1.59 1.59,-1.59 0.87,0 1.58,0.71 1.58,1.59 z"
         id="path3400" /><polygon
         style="stroke-width:0.82732761"
         points="179.64,489.31 147.9,489.31 147.9,477.41 179.64,477.41 "
         id="polygon3402" /><path
         style="fill:#000000;fill-rule:nonzero;stroke-width:0"
         inkscape:connector-curvature="0"
         d="m 137.01,483.36 0,0.08 -0.01,0.08 -0.01,0.08 -0.01,0.08 -0.02,0.08 -0.02,0.07 -0.03,0.08 -0.02,0.07 -0.04,0.07 -0.03,0.07 -0.04,0.06 -0.04,0.07 -0.05,0.06 -0.04,0.06 -0.05,0.06 -0.06,0.05 -0.05,0.05 -0.06,0.05 -0.06,0.05 -0.06,0.05 -0.06,0.04 -0.07,0.04 -0.07,0.03 -0.07,0.03 -0.07,0.03 -0.08,0.03 -0.07,0.02 -0.08,0.01 -0.08,0.02 -0.07,0.01 -0.09,0 -0.08,0.01 c -0.87,0 -1.58,-0.71 -1.58,-1.59 0,-0.88 0.71,-1.59 1.58,-1.59 0.88,0 1.59,0.71 1.59,1.59 z"
         id="path3404" /><path
         style="stroke-width:0.4136638"
         inkscape:connector-curvature="0"
         d="m 137.01,483.36 0,0.08 -0.01,0.08 -0.01,0.08 -0.01,0.08 -0.02,0.08 -0.02,0.07 -0.03,0.08 -0.02,0.07 -0.04,0.07 -0.03,0.07 -0.04,0.06 -0.04,0.07 -0.05,0.06 -0.04,0.06 -0.05,0.06 -0.06,0.05 -0.05,0.05 -0.06,0.05 -0.06,0.05 -0.06,0.05 -0.06,0.04 -0.07,0.04 -0.07,0.03 -0.07,0.03 -0.07,0.03 -0.08,0.03 -0.07,0.02 -0.08,0.01 -0.08,0.02 -0.07,0.01 -0.09,0 -0.08,0.01 c -0.87,0 -1.58,-0.71 -1.58,-1.59 0,-0.88 0.71,-1.59 1.58,-1.59 0.88,0 1.59,0.71 1.59,1.59 z"
         id="path3406" /><path
         style="fill:#000000;fill-rule:nonzero;stroke-width:0"
         inkscape:connector-curvature="0"
         d="m 193.7,483.36 0,0.08 0,0.08 -0.01,0.08 -0.02,0.08 -0.02,0.08 -0.02,0.07 -0.02,0.08 -0.03,0.07 -0.03,0.07 -0.04,0.07 -0.04,0.06 -0.04,0.07 -0.04,0.06 -0.05,0.06 -0.05,0.06 -0.05,0.05 -0.06,0.05 -0.05,0.05 -0.06,0.05 -0.07,0.05 -0.06,0.04 -0.07,0.04 -0.07,0.03 -0.07,0.03 -0.07,0.03 -0.07,0.03 -0.08,0.02 -0.07,0.01 -0.08,0.02 -0.08,0.01 -0.08,0 -0.08,0.01 c -0.88,0 -1.59,-0.71 -1.59,-1.59 0,-0.88 0.71,-1.59 1.59,-1.59 0.87,0 1.58,0.71 1.58,1.59 z"
         id="path3408" /><path
         style="stroke-width:0.4136638"
         inkscape:connector-curvature="0"
         d="m 193.7,483.36 0,0.08 0,0.08 -0.01,0.08 -0.02,0.08 -0.02,0.08 -0.02,0.07 -0.02,0.08 -0.03,0.07 -0.03,0.07 -0.04,0.07 -0.04,0.06 -0.04,0.07 -0.04,0.06 -0.05,0.06 -0.05,0.06 -0.05,0.05 -0.06,0.05 -0.05,0.05 -0.06,0.05 -0.07,0.05 -0.06,0.04 -0.07,0.04 -0.07,0.03 -0.07,0.03 -0.07,0.03 -0.07,0.03 -0.08,0.02 -0.07,0.01 -0.08,0.02 -0.08,0.01 -0.08,0 -0.08,0.01 c -0.88,0 -1.59,-0.71 -1.59,-1.59 0,-0.88 0.71,-1.59 1.59,-1.59 0.87,0 1.58,0.71 1.58,1.59 z"
         id="path3410" /><polygon
         style="stroke-width:0.82732761"
         points="236.34,489.31 204.59,489.31 204.59,477.41 236.34,477.41 "
         id="polygon3412" /><path
         style="fill:#000000;fill-rule:nonzero;stroke-width:0"
         inkscape:connector-curvature="0"
         d="m 193.7,483.36 0,0.08 0,0.08 -0.01,0.08 -0.02,0.08 -0.02,0.08 -0.02,0.07 -0.02,0.08 -0.03,0.07 -0.03,0.07 -0.04,0.07 -0.04,0.06 -0.04,0.07 -0.04,0.06 -0.05,0.06 -0.05,0.06 -0.05,0.05 -0.06,0.05 -0.05,0.05 -0.06,0.05 -0.07,0.05 -0.06,0.04 -0.07,0.04 -0.07,0.03 -0.07,0.03 -0.07,0.03 -0.07,0.03 -0.08,0.02 -0.07,0.01 -0.08,0.02 -0.08,0.01 -0.08,0 -0.08,0.01 c -0.88,0 -1.59,-0.71 -1.59,-1.59 0,-0.88 0.71,-1.59 1.59,-1.59 0.87,0 1.58,0.71 1.58,1.59 z"
         id="path3414" /><path
         style="stroke-width:0.4136638"
         inkscape:connector-curvature="0"
         d="m 193.7,483.36 0,0.08 0,0.08 -0.01,0.08 -0.02,0.08 -0.02,0.08 -0.02,0.07 -0.02,0.08 -0.03,0.07 -0.03,0.07 -0.04,0.07 -0.04,0.06 -0.04,0.07 -0.04,0.06 -0.05,0.06 -0.05,0.06 -0.05,0.05 -0.06,0.05 -0.05,0.05 -0.06,0.05 -0.07,0.05 -0.06,0.04 -0.07,0.04 -0.07,0.03 -0.07,0.03 -0.07,0.03 -0.07,0.03 -0.08,0.02 -0.07,0.01 -0.08,0.02 -0.08,0.01 -0.08,0 -0.08,0.01 c -0.88,0 -1.59,-0.71 -1.59,-1.59 0,-0.88 0.71,-1.59 1.59,-1.59 0.87,0 1.58,0.71 1.58,1.59 z"
         id="path3416" /><path
         style="fill:#000000;fill-rule:nonzero;stroke-width:0"
         inkscape:connector-curvature="0"
         d="m 250.4,483.36 -0.01,0.08 0,0.08 -0.01,0.08 -0.02,0.08 -0.01,0.08 -0.02,0.07 -0.03,0.08 -0.03,0.07 -0.03,0.07 -0.03,0.07 -0.04,0.06 -0.04,0.07 -0.05,0.06 -0.05,0.06 -0.05,0.06 -0.05,0.05 -0.05,0.05 -0.06,0.05 -0.06,0.05 -0.06,0.05 -0.07,0.04 -0.06,0.04 -0.07,0.03 -0.07,0.03 -0.07,0.03 -0.08,0.03 -0.07,0.02 -0.08,0.01 -0.08,0.02 -0.08,0.01 -0.08,0 -0.08,0.01 c -0.88,0 -1.59,-0.71 -1.59,-1.59 0,-0.88 0.71,-1.59 1.59,-1.59 0.88,0 1.59,0.71 1.59,1.59 z"
         id="path3418" /><path
         style="stroke-width:0.4136638"
         inkscape:connector-curvature="0"
         d="m 250.4,483.36 -0.01,0.08 0,0.08 -0.01,0.08 -0.02,0.08 -0.01,0.08 -0.02,0.07 -0.03,0.08 -0.03,0.07 -0.03,0.07 -0.03,0.07 -0.04,0.06 -0.04,0.07 -0.05,0.06 -0.05,0.06 -0.05,0.06 -0.05,0.05 -0.05,0.05 -0.06,0.05 -0.06,0.05 -0.06,0.05 -0.07,0.04 -0.06,0.04 -0.07,0.03 -0.07,0.03 -0.07,0.03 -0.08,0.03 -0.07,0.02 -0.08,0.01 -0.08,0.02 -0.08,0.01 -0.08,0 -0.08,0.01 c -0.88,0 -1.59,-0.71 -1.59,-1.59 0,-0.88 0.71,-1.59 1.59,-1.59 0.88,0 1.59,0.71 1.59,1.59 z"
         id="path3420" /><polygon
         style="stroke-width:0.82732761"
         points="293.03,489.31 261.28,489.31 261.28,477.41 293.03,477.41 "
         id="polygon3422" /><path
         style="fill:#000000;fill-rule:nonzero;stroke-width:0"
         inkscape:connector-curvature="0"
         d="m 250.4,483.36 -0.01,0.08 0,0.08 -0.01,0.08 -0.02,0.08 -0.01,0.08 -0.02,0.07 -0.03,0.08 -0.03,0.07 -0.03,0.07 -0.03,0.07 -0.04,0.06 -0.04,0.07 -0.05,0.06 -0.05,0.06 -0.05,0.06 -0.05,0.05 -0.05,0.05 -0.06,0.05 -0.06,0.05 -0.06,0.05 -0.07,0.04 -0.06,0.04 -0.07,0.03 -0.07,0.03 -0.07,0.03 -0.08,0.03 -0.07,0.02 -0.08,0.01 -0.08,0.02 -0.08,0.01 -0.08,0 -0.08,0.01 c -0.88,0 -1.59,-0.71 -1.59,-1.59 0,-0.88 0.71,-1.59 1.59,-1.59 0.88,0 1.59,0.71 1.59,1.59 z"
         id="path3424" /><path
         style="stroke-width:0.4136638"
         inkscape:connector-curvature="0"
         d="m 250.4,483.36 -0.01,0.08 0,0.08 -0.01,0.08 -0.02,0.08 -0.01,0.08 -0.02,0.07 -0.03,0.08 -0.03,0.07 -0.03,0.07 -0.03,0.07 -0.04,0.06 -0.04,0.07 -0.05,0.06 -0.05,0.06 -0.05,0.06 -0.05,0.05 -0.05,0.05 -0.06,0.05 -0.06,0.05 -0.06,0.05 -0.07,0.04 -0.06,0.04 -0.07,0.03 -0.07,0.03 -0.07,0.03 -0.08,0.03 -0.07,0.02 -0.08,0.01 -0.08,0.02 -0.08,0.01 -0.08,0 -0.08,0.01 c -0.88,0 -1.59,-0.71 -1.59,-1.59 0,-0.88 0.71,-1.59 1.59,-1.59 0.88,0 1.59,0.71 1.59,1.59 z"
         id="path3426" /><path
         style="fill:#000000;fill-rule:nonzero;stroke-width:0"
         inkscape:connector-curvature="0"
         d="m 307.09,483.36 0,0.08 -0.01,0.08 -0.01,0.08 -0.01,0.08 -0.02,0.08 -0.02,0.07 -0.03,0.08 -0.02,0.07 -0.04,0.07 -0.03,0.07 -0.04,0.06 -0.04,0.07 -0.04,0.06 -0.05,0.06 -0.05,0.06 -0.05,0.05 -0.06,0.05 -0.06,0.05 -0.06,0.05 -0.06,0.05 -0.06,0.04 -0.07,0.04 -0.07,0.03 -0.07,0.03 -0.07,0.03 -0.07,0.03 -0.08,0.02 -0.08,0.01 -0.07,0.02 -0.08,0.01 -0.08,0 -0.09,0.01 c -0.87,0 -1.58,-0.71 -1.58,-1.59 0,-0.88 0.71,-1.59 1.58,-1.59 0.88,0 1.59,0.71 1.59,1.59 z"
         id="path3428" /><path
         style="stroke-width:0.4136638"
         inkscape:connector-curvature="0"
         d="m 307.09,483.36 0,0.08 -0.01,0.08 -0.01,0.08 -0.01,0.08 -0.02,0.08 -0.02,0.07 -0.03,0.08 -0.02,0.07 -0.04,0.07 -0.03,0.07 -0.04,0.06 -0.04,0.07 -0.04,0.06 -0.05,0.06 -0.05,0.06 -0.05,0.05 -0.06,0.05 -0.06,0.05 -0.06,0.05 -0.06,0.05 -0.06,0.04 -0.07,0.04 -0.07,0.03 -0.07,0.03 -0.07,0.03 -0.07,0.03 -0.08,0.02 -0.08,0.01 -0.07,0.02 -0.08,0.01 -0.08,0 -0.09,0.01 c -0.87,0 -1.58,-0.71 -1.58,-1.59 0,-0.88 0.71,-1.59 1.58,-1.59 0.88,0 1.59,0.71 1.59,1.59 z"
         id="path3430" /><polygon
         style="stroke-width:0.82732761"
         points="349.73,489.31 317.98,489.31 317.98,477.41 349.73,477.41 "
         id="polygon3432" /><path
         style="fill:#000000;fill-rule:nonzero;stroke-width:0"
         inkscape:connector-curvature="0"
         d="m 307.09,483.36 0,0.08 -0.01,0.08 -0.01,0.08 -0.01,0.08 -0.02,0.08 -0.02,0.07 -0.03,0.08 -0.02,0.07 -0.04,0.07 -0.03,0.07 -0.04,0.06 -0.04,0.07 -0.04,0.06 -0.05,0.06 -0.05,0.06 -0.05,0.05 -0.06,0.05 -0.06,0.05 -0.06,0.05 -0.06,0.05 -0.06,0.04 -0.07,0.04 -0.07,0.03 -0.07,0.03 -0.07,0.03 -0.07,0.03 -0.08,0.02 -0.08,0.01 -0.07,0.02 -0.08,0.01 -0.08,0 -0.09,0.01 c -0.87,0 -1.58,-0.71 -1.58,-1.59 0,-0.88 0.71,-1.59 1.58,-1.59 0.88,0 1.59,0.71 1.59,1.59 z"
         id="path3434" /><path
         style="stroke-width:0.4136638"
         inkscape:connector-curvature="0"
         d="m 307.09,483.36 0,0.08 -0.01,0.08 -0.01,0.08 -0.01,0.08 -0.02,0.08 -0.02,0.07 -0.03,0.08 -0.02,0.07 -0.04,0.07 -0.03,0.07 -0.04,0.06 -0.04,0.07 -0.04,0.06 -0.05,0.06 -0.05,0.06 -0.05,0.05 -0.06,0.05 -0.06,0.05 -0.06,0.05 -0.06,0.05 -0.06,0.04 -0.07,0.04 -0.07,0.03 -0.07,0.03 -0.07,0.03 -0.07,0.03 -0.08,0.02 -0.08,0.01 -0.07,0.02 -0.08,0.01 -0.08,0 -0.09,0.01 c -0.87,0 -1.58,-0.71 -1.58,-1.59 0,-0.88 0.71,-1.59 1.58,-1.59 0.88,0 1.59,0.71 1.59,1.59 z"
         id="path3436" /><path
         style="fill:#000000;fill-rule:nonzero;stroke-width:0"
         inkscape:connector-curvature="0"
         d="m 363.78,483.36 0,0.08 0,0.08 -0.01,0.08 -0.02,0.08 -0.02,0.08 -0.02,0.07 -0.02,0.08 -0.03,0.07 -0.03,0.07 -0.04,0.07 -0.04,0.06 -0.04,0.07 -0.04,0.06 -0.05,0.06 -0.05,0.06 -0.05,0.05 -0.06,0.05 -0.05,0.05 -0.06,0.05 -0.07,0.05 -0.06,0.04 -0.07,0.04 -0.06,0.03 -0.08,0.03 -0.07,0.03 -0.07,0.03 -0.08,0.02 -0.07,0.01 -0.08,0.02 -0.08,0.01 -0.08,0 -0.08,0.01 c -0.88,0 -1.59,-0.71 -1.59,-1.59 0,-0.88 0.71,-1.59 1.59,-1.59 0.87,0 1.58,0.71 1.58,1.59 z"
         id="path3438" /><path
         style="stroke-width:0.4136638"
         inkscape:connector-curvature="0"
         d="m 363.78,483.36 0,0.08 0,0.08 -0.01,0.08 -0.02,0.08 -0.02,0.08 -0.02,0.07 -0.02,0.08 -0.03,0.07 -0.03,0.07 -0.04,0.07 -0.04,0.06 -0.04,0.07 -0.04,0.06 -0.05,0.06 -0.05,0.06 -0.05,0.05 -0.06,0.05 -0.05,0.05 -0.06,0.05 -0.07,0.05 -0.06,0.04 -0.07,0.04 -0.06,0.03 -0.08,0.03 -0.07,0.03 -0.07,0.03 -0.08,0.02 -0.07,0.01 -0.08,0.02 -0.08,0.01 -0.08,0 -0.08,0.01 c -0.88,0 -1.59,-0.71 -1.59,-1.59 0,-0.88 0.71,-1.59 1.59,-1.59 0.87,0 1.58,0.71 1.58,1.59 z"
         id="path3440" /><polygon
         style="stroke-width:0.82732761"
         points="406.42,489.31 374.67,489.31 374.67,477.41 406.42,477.41 "
         id="polygon3442" /><path
         style="fill:#000000;fill-rule:nonzero;stroke-width:0"
         inkscape:connector-curvature="0"
         d="m 363.78,483.36 0,0.08 0,0.08 -0.01,0.08 -0.02,0.08 -0.02,0.08 -0.02,0.07 -0.02,0.08 -0.03,0.07 -0.03,0.07 -0.04,0.07 -0.04,0.06 -0.04,0.07 -0.04,0.06 -0.05,0.06 -0.05,0.06 -0.05,0.05 -0.06,0.05 -0.05,0.05 -0.06,0.05 -0.07,0.05 -0.06,0.04 -0.07,0.04 -0.06,0.03 -0.08,0.03 -0.07,0.03 -0.07,0.03 -0.08,0.02 -0.07,0.01 -0.08,0.02 -0.08,0.01 -0.08,0 -0.08,0.01 c -0.88,0 -1.59,-0.71 -1.59,-1.59 0,-0.88 0.71,-1.59 1.59,-1.59 0.87,0 1.58,0.71 1.58,1.59 z"
         id="path3444" /><path
         style="stroke-width:0.4136638"
         inkscape:connector-curvature="0"
         d="m 363.78,483.36 0,0.08 0,0.08 -0.01,0.08 -0.02,0.08 -0.02,0.08 -0.02,0.07 -0.02,0.08 -0.03,0.07 -0.03,0.07 -0.04,0.07 -0.04,0.06 -0.04,0.07 -0.04,0.06 -0.05,0.06 -0.05,0.06 -0.05,0.05 -0.06,0.05 -0.05,0.05 -0.06,0.05 -0.07,0.05 -0.06,0.04 -0.07,0.04 -0.06,0.03 -0.08,0.03 -0.07,0.03 -0.07,0.03 -0.08,0.02 -0.07,0.01 -0.08,0.02 -0.08,0.01 -0.08,0 -0.08,0.01 c -0.88,0 -1.59,-0.71 -1.59,-1.59 0,-0.88 0.71,-1.59 1.59,-1.59 0.87,0 1.58,0.71 1.58,1.59 z"
         id="path3446" /><path
         style="fill:#000000;fill-rule:nonzero;stroke-width:0"
         inkscape:connector-curvature="0"
         d="m 420.48,483.36 0,0.08 -0.01,0.08 -0.01,0.08 -0.01,0.08 -0.02,0.08 -0.02,0.07 -0.03,0.08 -0.03,0.07 -0.03,0.07 -0.03,0.07 -0.04,0.06 -0.04,0.07 -0.05,0.06 -0.04,0.06 -0.05,0.06 -0.06,0.05 -0.05,0.05 -0.06,0.05 -0.06,0.05 -0.06,0.05 -0.07,0.04 -0.06,0.04 -0.07,0.03 -0.07,0.03 -0.07,0.03 -0.08,0.03 -0.07,0.02 -0.08,0.01 -0.08,0.02 -0.08,0.01 -0.08,0 -0.08,0.01 c -0.88,0 -1.59,-0.71 -1.59,-1.59 0,-0.88 0.71,-1.59 1.59,-1.59 0.88,0 1.59,0.71 1.59,1.59 z"
         id="path3448" /><path
         style="stroke-width:0.4136638"
         inkscape:connector-curvature="0"
         d="m 420.48,483.36 0,0.08 -0.01,0.08 -0.01,0.08 -0.01,0.08 -0.02,0.08 -0.02,0.07 -0.03,0.08 -0.03,0.07 -0.03,0.07 -0.03,0.07 -0.04,0.06 -0.04,0.07 -0.05,0.06 -0.04,0.06 -0.05,0.06 -0.06,0.05 -0.05,0.05 -0.06,0.05 -0.06,0.05 -0.06,0.05 -0.07,0.04 -0.06,0.04 -0.07,0.03 -0.07,0.03 -0.07,0.03 -0.08,0.03 -0.07,0.02 -0.08,0.01 -0.08,0.02 -0.08,0.01 -0.08,0 -0.08,0.01 c -0.88,0 -1.59,-0.71 -1.59,-1.59 0,-0.88 0.71,-1.59 1.59,-1.59 0.88,0 1.59,0.71 1.59,1.59 z"
         id="path3450" /><line
         style="stroke-width:0.4136638"
         x1="447.23999"
         y1="455.01001"
         x2="447.23999"
         y2="445.09"
         id="line3452" /><line
         style="stroke-width:0.4136638"
         x1="437.32001"
         y1="445.09"
         x2="457.16"
         y2="445.09"
         id="line3454" /><line
         style="stroke-width:0.4136638"
         x1="439.29999"
         y1="443.10999"
         x2="455.17001"
         y2="443.10999"
         id="line3456" /><line
         style="stroke-width:0.4136638"
         x1="441.29001"
         y1="441.12"
         x2="453.19"
         y2="441.12"
         id="line3458" /><line
         style="stroke-width:0.4136638"
         x1="443.26999"
         y1="439.14001"
         x2="451.20999"
         y2="439.14001"
         id="line3460" /><line
         style="stroke-width:0.82732761"
         x1="156.82001"
         y1="455.01001"
         x2="167.94"
         y2="461.95999"
         id="line3462" /><path
         style="stroke-width:0.82732761"
         inkscape:connector-curvature="0"
         d="m 165.85,454.82 c -0.73,2.75 -2.3,5.21 -4.48,7.04"
         id="path3464" /><line
         style="stroke-width:0.82732761"
         x1="157.87"
         y1="463.70001"
         x2="160.52"
         y2="462.37"
         id="line3466" /><path
         style="fill:#000000;fill-rule:nonzero;stroke-width:0"
         inkscape:connector-curvature="0"
         d="m 157.73,463.76 0.1,-0.07 0.1,-0.09 0.11,-0.08 0.11,-0.09 0.12,-0.1 0.12,-0.09 0.12,-0.11 0.13,-0.1 0.25,-0.22 0.26,-0.23 0.27,-0.25 0.26,-0.25 0.27,-0.27 0.25,-0.28 0.25,-0.28 0.25,-0.3 0.11,-0.15 0.11,-0.15 0.11,-0.16 0.11,-0.16 0.1,-0.15 0.09,-0.16 0.09,-0.17 0.09,-0.16 c -0.53,1.86 -0.06,2.79 1.74,3.49 -1.92,-0.35 -4.24,0.24 -5.52,0.58 z"
         id="path3468" /><path
         style="fill:#000000;fill-rule:nonzero;stroke-width:0"
         inkscape:connector-curvature="0"
         d="m 193.7,455.01 0,0.08 0,0.09 -0.01,0.07 -0.02,0.08 -0.02,0.08 -0.02,0.08 -0.02,0.07 -0.03,0.07 -0.03,0.07 -0.04,0.07 -0.04,0.07 -0.04,0.06 -0.04,0.06 -0.05,0.06 -0.05,0.06 -0.05,0.06 -0.06,0.05 -0.05,0.05 -0.06,0.04 -0.07,0.05 -0.06,0.04 -0.07,0.04 -0.07,0.03 -0.07,0.04 -0.07,0.02 -0.07,0.03 -0.08,0.02 -0.07,0.02 -0.08,0.01 -0.08,0.01 -0.08,0.01 -0.08,0 c -0.88,0 -1.59,-0.71 -1.59,-1.59 0,-0.87 0.71,-1.58 1.59,-1.58 0.87,0 1.58,0.71 1.58,1.58 z"
         id="path3470" /><path
         style="stroke-width:0.4136638"
         inkscape:connector-curvature="0"
         d="m 193.7,455.01 0,0.08 0,0.09 -0.01,0.07 -0.02,0.08 -0.02,0.08 -0.02,0.08 -0.02,0.07 -0.03,0.07 -0.03,0.07 -0.04,0.07 -0.04,0.07 -0.04,0.06 -0.04,0.06 -0.05,0.06 -0.05,0.06 -0.05,0.06 -0.06,0.05 -0.05,0.05 -0.06,0.04 -0.07,0.05 -0.06,0.04 -0.07,0.04 -0.07,0.03 -0.07,0.04 -0.07,0.02 -0.07,0.03 -0.08,0.02 -0.07,0.02 -0.08,0.01 -0.08,0.01 -0.08,0.01 -0.08,0 c -0.88,0 -1.59,-0.71 -1.59,-1.59 0,-0.87 0.71,-1.58 1.59,-1.58 0.87,0 1.58,0.71 1.58,1.58 z"
         id="path3472" /><line
         style="stroke-width:0.82732761"
         x1="213.52"
         y1="455.01001"
         x2="224.63"
         y2="461.95999"
         id="line3474" /><path
         style="stroke-width:0.82732761"
         inkscape:connector-curvature="0"
         d="m 222.55,454.82 c -0.74,2.75 -2.31,5.21 -4.49,7.04"
         id="path3476" /><line
         style="stroke-width:0.82732761"
         x1="214.56"
         y1="463.70001"
         x2="217.21001"
         y2="462.37"
         id="line3478" /><path
         style="fill:#000000;fill-rule:nonzero;stroke-width:0"
         inkscape:connector-curvature="0"
         d="m 214.42,463.76 0.1,-0.07 0.11,-0.09 0.11,-0.08 0.11,-0.09 0.11,-0.1 0.12,-0.09 0.13,-0.11 0.12,-0.1 0.26,-0.22 0.26,-0.23 0.26,-0.25 0.27,-0.25 0.26,-0.27 0.26,-0.28 0.25,-0.28 0.24,-0.3 0.12,-0.15 0.11,-0.15 0.11,-0.16 0.1,-0.16 0.1,-0.15 0.1,-0.16 0.09,-0.17 0.08,-0.16 c -0.52,1.86 -0.06,2.79 1.75,3.49 -1.92,-0.35 -4.25,0.24 -5.53,0.58 z"
         id="path3480" /><path
         style="fill:#000000;fill-rule:nonzero;stroke-width:0"
         inkscape:connector-curvature="0"
         d="m 193.7,455.01 0,0.08 0,0.09 -0.01,0.07 -0.02,0.08 -0.02,0.08 -0.02,0.08 -0.02,0.07 -0.03,0.07 -0.03,0.07 -0.04,0.07 -0.04,0.07 -0.04,0.06 -0.04,0.06 -0.05,0.06 -0.05,0.06 -0.05,0.06 -0.06,0.05 -0.05,0.05 -0.06,0.04 -0.07,0.05 -0.06,0.04 -0.07,0.04 -0.07,0.03 -0.07,0.04 -0.07,0.02 -0.07,0.03 -0.08,0.02 -0.07,0.02 -0.08,0.01 -0.08,0.01 -0.08,0.01 -0.08,0 c -0.88,0 -1.59,-0.71 -1.59,-1.59 0,-0.87 0.71,-1.58 1.59,-1.58 0.87,0 1.58,0.71 1.58,1.58 z"
         id="path3482" /><path
         style="stroke-width:0.4136638"
         inkscape:connector-curvature="0"
         d="m 193.7,455.01 0,0.08 0,0.09 -0.01,0.07 -0.02,0.08 -0.02,0.08 -0.02,0.08 -0.02,0.07 -0.03,0.07 -0.03,0.07 -0.04,0.07 -0.04,0.07 -0.04,0.06 -0.04,0.06 -0.05,0.06 -0.05,0.06 -0.05,0.06 -0.06,0.05 -0.05,0.05 -0.06,0.04 -0.07,0.05 -0.06,0.04 -0.07,0.04 -0.07,0.03 -0.07,0.04 -0.07,0.02 -0.07,0.03 -0.08,0.02 -0.07,0.02 -0.08,0.01 -0.08,0.01 -0.08,0.01 -0.08,0 c -0.88,0 -1.59,-0.71 -1.59,-1.59 0,-0.87 0.71,-1.58 1.59,-1.58 0.87,0 1.58,0.71 1.58,1.58 z"
         id="path3484" /><path
         style="fill:#000000;fill-rule:nonzero;stroke-width:0"
         inkscape:connector-curvature="0"
         d="m 250.4,455.01 -0.01,0.08 0,0.09 -0.01,0.07 -0.02,0.08 -0.01,0.08 -0.02,0.08 -0.03,0.07 -0.03,0.07 -0.03,0.07 -0.03,0.07 -0.04,0.07 -0.04,0.06 -0.05,0.06 -0.05,0.06 -0.05,0.06 -0.05,0.06 -0.05,0.05 -0.06,0.05 -0.06,0.04 -0.06,0.05 -0.07,0.04 -0.06,0.04 -0.07,0.03 -0.07,0.04 -0.07,0.02 -0.08,0.03 -0.07,0.02 -0.08,0.02 -0.08,0.01 -0.08,0.01 -0.08,0.01 -0.08,0 c -0.88,0 -1.59,-0.71 -1.59,-1.59 0,-0.87 0.71,-1.58 1.59,-1.58 0.88,0 1.59,0.71 1.59,1.58 z"
         id="path3486" /><path
         style="stroke-width:0.4136638"
         inkscape:connector-curvature="0"
         d="m 250.4,455.01 -0.01,0.08 0,0.09 -0.01,0.07 -0.02,0.08 -0.01,0.08 -0.02,0.08 -0.03,0.07 -0.03,0.07 -0.03,0.07 -0.03,0.07 -0.04,0.07 -0.04,0.06 -0.05,0.06 -0.05,0.06 -0.05,0.06 -0.05,0.06 -0.05,0.05 -0.06,0.05 -0.06,0.04 -0.06,0.05 -0.07,0.04 -0.06,0.04 -0.07,0.03 -0.07,0.04 -0.07,0.02 -0.08,0.03 -0.07,0.02 -0.08,0.02 -0.08,0.01 -0.08,0.01 -0.08,0.01 -0.08,0 c -0.88,0 -1.59,-0.71 -1.59,-1.59 0,-0.87 0.71,-1.58 1.59,-1.58 0.88,0 1.59,0.71 1.59,1.58 z"
         id="path3488" /><line
         style="stroke-width:0.82732761"
         x1="270.20999"
         y1="455.01001"
         x2="281.32001"
         y2="461.95999"
         id="line3490" /><path
         style="stroke-width:0.82732761"
         inkscape:connector-curvature="0"
         d="m 279.24,454.82 c -0.74,2.75 -2.31,5.21 -4.49,7.04"
         id="path3492" /><line
         style="stroke-width:0.82732761"
         x1="271.25"
         y1="463.70001"
         x2="273.91"
         y2="462.37"
         id="line3494" /><path
         style="fill:#000000;fill-rule:nonzero;stroke-width:0"
         inkscape:connector-curvature="0"
         d="m 271.11,463.76 0.11,-0.07 0.1,-0.09 0.11,-0.08 0.11,-0.09 0.12,-0.1 0.12,-0.09 0.12,-0.11 0.12,-0.1 0.26,-0.22 0.26,-0.23 0.26,-0.25 0.27,-0.25 0.26,-0.27 0.26,-0.28 0.25,-0.28 0.24,-0.3 0.12,-0.15 0.11,-0.15 0.11,-0.16 0.1,-0.16 0.1,-0.15 0.1,-0.16 0.09,-0.17 0.08,-0.16 c -0.52,1.86 -0.05,2.79 1.75,3.49 -1.92,-0.35 -4.25,0.24 -5.53,0.58 z"
         id="path3496" /><path
         style="fill:#000000;fill-rule:nonzero;stroke-width:0"
         inkscape:connector-curvature="0"
         d="m 250.4,455.01 -0.01,0.08 0,0.09 -0.01,0.07 -0.02,0.08 -0.01,0.08 -0.02,0.08 -0.03,0.07 -0.03,0.07 -0.03,0.07 -0.03,0.07 -0.04,0.07 -0.04,0.06 -0.05,0.06 -0.05,0.06 -0.05,0.06 -0.05,0.06 -0.05,0.05 -0.06,0.05 -0.06,0.04 -0.06,0.05 -0.07,0.04 -0.06,0.04 -0.07,0.03 -0.07,0.04 -0.07,0.02 -0.08,0.03 -0.07,0.02 -0.08,0.02 -0.08,0.01 -0.08,0.01 -0.08,0.01 -0.08,0 c -0.88,0 -1.59,-0.71 -1.59,-1.59 0,-0.87 0.71,-1.58 1.59,-1.58 0.88,0 1.59,0.71 1.59,1.58 z"
         id="path3498" /><path
         style="stroke-width:0.4136638"
         inkscape:connector-curvature="0"
         d="m 250.4,455.01 -0.01,0.08 0,0.09 -0.01,0.07 -0.02,0.08 -0.01,0.08 -0.02,0.08 -0.03,0.07 -0.03,0.07 -0.03,0.07 -0.03,0.07 -0.04,0.07 -0.04,0.06 -0.05,0.06 -0.05,0.06 -0.05,0.06 -0.05,0.06 -0.05,0.05 -0.06,0.05 -0.06,0.04 -0.06,0.05 -0.07,0.04 -0.06,0.04 -0.07,0.03 -0.07,0.04 -0.07,0.02 -0.08,0.03 -0.07,0.02 -0.08,0.02 -0.08,0.01 -0.08,0.01 -0.08,0.01 -0.08,0 c -0.88,0 -1.59,-0.71 -1.59,-1.59 0,-0.87 0.71,-1.58 1.59,-1.58 0.88,0 1.59,0.71 1.59,1.58 z"
         id="path3500" /><path
         style="fill:#000000;fill-rule:nonzero;stroke-width:0"
         inkscape:connector-curvature="0"
         d="m 307.09,455.01 0,0.08 -0.01,0.09 -0.01,0.07 -0.01,0.08 -0.02,0.08 -0.02,0.08 -0.03,0.07 -0.02,0.07 -0.04,0.07 -0.03,0.07 -0.04,0.07 -0.04,0.06 -0.04,0.06 -0.05,0.06 -0.05,0.06 -0.05,0.06 -0.06,0.05 -0.06,0.05 -0.06,0.04 -0.06,0.05 -0.06,0.04 -0.07,0.04 -0.07,0.03 -0.07,0.04 -0.07,0.02 -0.07,0.03 -0.08,0.02 -0.08,0.02 -0.07,0.01 -0.08,0.01 -0.08,0.01 -0.09,0 c -0.87,0 -1.58,-0.71 -1.58,-1.59 0,-0.87 0.71,-1.58 1.58,-1.58 0.88,0 1.59,0.71 1.59,1.58 z"
         id="path3502" /><path
         style="stroke-width:0.4136638"
         inkscape:connector-curvature="0"
         d="m 307.09,455.01 0,0.08 -0.01,0.09 -0.01,0.07 -0.01,0.08 -0.02,0.08 -0.02,0.08 -0.03,0.07 -0.02,0.07 -0.04,0.07 -0.03,0.07 -0.04,0.07 -0.04,0.06 -0.04,0.06 -0.05,0.06 -0.05,0.06 -0.05,0.06 -0.06,0.05 -0.06,0.05 -0.06,0.04 -0.06,0.05 -0.06,0.04 -0.07,0.04 -0.07,0.03 -0.07,0.04 -0.07,0.02 -0.07,0.03 -0.08,0.02 -0.08,0.02 -0.07,0.01 -0.08,0.01 -0.08,0.01 -0.09,0 c -0.87,0 -1.58,-0.71 -1.58,-1.59 0,-0.87 0.71,-1.58 1.58,-1.58 0.88,0 1.59,0.71 1.59,1.58 z"
         id="path3504" /><line
         style="stroke-width:0.82732761"
         x1="326.89999"
         y1="455.01001"
         x2="338.01999"
         y2="461.95999"
         id="line3506" /><path
         style="stroke-width:0.82732761"
         inkscape:connector-curvature="0"
         d="m 335.93,454.82 c -0.73,2.75 -2.3,5.21 -4.48,7.04"
         id="path3508" /><line
         style="stroke-width:0.82732761"
         x1="327.95001"
         y1="463.70001"
         x2="330.60001"
         y2="462.37"
         id="line3510" /><path
         style="fill:#000000;fill-rule:nonzero;stroke-width:0"
         inkscape:connector-curvature="0"
         d="m 327.81,463.76 0.1,-0.07 0.1,-0.09 0.11,-0.08 0.12,-0.09 0.11,-0.1 0.12,-0.09 0.12,-0.11 0.13,-0.1 0.25,-0.22 0.26,-0.23 0.27,-0.25 0.26,-0.25 0.27,-0.27 0.25,-0.28 0.26,-0.28 0.24,-0.3 0.11,-0.15 0.12,-0.15 0.1,-0.16 0.11,-0.16 0.1,-0.15 0.09,-0.16 0.09,-0.17 0.09,-0.16 c -0.52,1.86 -0.06,2.79 1.74,3.49 -1.92,-0.35 -4.24,0.24 -5.52,0.58 z"
         id="path3512" /><path
         style="fill:#000000;fill-rule:nonzero;stroke-width:0"
         inkscape:connector-curvature="0"
         d="m 307.09,455.01 0,0.08 -0.01,0.09 -0.01,0.07 -0.01,0.08 -0.02,0.08 -0.02,0.08 -0.03,0.07 -0.02,0.07 -0.04,0.07 -0.03,0.07 -0.04,0.07 -0.04,0.06 -0.04,0.06 -0.05,0.06 -0.05,0.06 -0.05,0.06 -0.06,0.05 -0.06,0.05 -0.06,0.04 -0.06,0.05 -0.06,0.04 -0.07,0.04 -0.07,0.03 -0.07,0.04 -0.07,0.02 -0.07,0.03 -0.08,0.02 -0.08,0.02 -0.07,0.01 -0.08,0.01 -0.08,0.01 -0.09,0 c -0.87,0 -1.58,-0.71 -1.58,-1.59 0,-0.87 0.71,-1.58 1.58,-1.58 0.88,0 1.59,0.71 1.59,1.58 z"
         id="path3514" /><path
         style="stroke-width:0.4136638"
         inkscape:connector-curvature="0"
         d="m 307.09,455.01 0,0.08 -0.01,0.09 -0.01,0.07 -0.01,0.08 -0.02,0.08 -0.02,0.08 -0.03,0.07 -0.02,0.07 -0.04,0.07 -0.03,0.07 -0.04,0.07 -0.04,0.06 -0.04,0.06 -0.05,0.06 -0.05,0.06 -0.05,0.06 -0.06,0.05 -0.06,0.05 -0.06,0.04 -0.06,0.05 -0.06,0.04 -0.07,0.04 -0.07,0.03 -0.07,0.04 -0.07,0.02 -0.07,0.03 -0.08,0.02 -0.08,0.02 -0.07,0.01 -0.08,0.01 -0.08,0.01 -0.09,0 c -0.87,0 -1.58,-0.71 -1.58,-1.59 0,-0.87 0.71,-1.58 1.58,-1.58 0.88,0 1.59,0.71 1.59,1.58 z"
         id="path3516" /><path
         style="fill:#000000;fill-rule:nonzero;stroke-width:0"
         inkscape:connector-curvature="0"
         d="m 363.78,455.01 0,0.08 0,0.09 -0.01,0.07 -0.02,0.08 -0.02,0.08 -0.02,0.08 -0.02,0.07 -0.03,0.07 -0.03,0.07 -0.04,0.07 -0.04,0.07 -0.04,0.06 -0.04,0.06 -0.05,0.06 -0.05,0.06 -0.05,0.06 -0.06,0.05 -0.05,0.05 -0.06,0.04 -0.07,0.05 -0.06,0.04 -0.07,0.04 -0.06,0.03 -0.08,0.04 -0.07,0.02 -0.07,0.03 -0.08,0.02 -0.07,0.02 -0.08,0.01 -0.08,0.01 -0.08,0.01 -0.08,0 c -0.88,0 -1.59,-0.71 -1.59,-1.59 0,-0.87 0.71,-1.58 1.59,-1.58 0.87,0 1.58,0.71 1.58,1.58 z"
         id="path3518" /><path
         style="stroke-width:0.4136638"
         inkscape:connector-curvature="0"
         d="m 363.78,455.01 0,0.08 0,0.09 -0.01,0.07 -0.02,0.08 -0.02,0.08 -0.02,0.08 -0.02,0.07 -0.03,0.07 -0.03,0.07 -0.04,0.07 -0.04,0.07 -0.04,0.06 -0.04,0.06 -0.05,0.06 -0.05,0.06 -0.05,0.06 -0.06,0.05 -0.05,0.05 -0.06,0.04 -0.07,0.05 -0.06,0.04 -0.07,0.04 -0.06,0.03 -0.08,0.04 -0.07,0.02 -0.07,0.03 -0.08,0.02 -0.07,0.02 -0.08,0.01 -0.08,0.01 -0.08,0.01 -0.08,0 c -0.88,0 -1.59,-0.71 -1.59,-1.59 0,-0.87 0.71,-1.58 1.59,-1.58 0.87,0 1.58,0.71 1.58,1.58 z"
         id="path3520" /><line
         style="stroke-width:0.82732761"
         x1="383.60001"
         y1="455.01001"
         x2="394.70999"
         y2="461.95999"
         id="line3522" /><path
         style="stroke-width:0.82732761"
         inkscape:connector-curvature="0"
         d="m 392.63,454.82 c -0.74,2.75 -2.31,5.21 -4.49,7.04"
         id="path3524" /><line
         style="stroke-width:0.82732761"
         x1="384.64001"
         y1="463.70001"
         x2="387.29001"
         y2="462.37"
         id="line3526" /><path
         style="fill:#000000;fill-rule:nonzero;stroke-width:0"
         inkscape:connector-curvature="0"
         d="m 384.5,463.76 0.1,-0.07 0.11,-0.09 0.11,-0.08 0.11,-0.09 0.12,-0.1 0.11,-0.09 0.13,-0.11 0.12,-0.1 0.26,-0.22 0.26,-0.23 0.26,-0.25 0.27,-0.25 0.26,-0.27 0.26,-0.28 0.25,-0.28 0.24,-0.3 0.12,-0.15 0.11,-0.15 0.11,-0.16 0.1,-0.16 0.1,-0.15 0.1,-0.16 0.09,-0.17 0.08,-0.16 c -0.52,1.86 -0.06,2.79 1.75,3.49 -1.92,-0.35 -4.25,0.24 -5.53,0.58 z"
         id="path3528" /><path
         style="fill:#000000;fill-rule:nonzero;stroke-width:0"
         inkscape:connector-curvature="0"
         d="m 363.78,455.01 0,0.08 0,0.09 -0.01,0.07 -0.02,0.08 -0.02,0.08 -0.02,0.08 -0.02,0.07 -0.03,0.07 -0.03,0.07 -0.04,0.07 -0.04,0.07 -0.04,0.06 -0.04,0.06 -0.05,0.06 -0.05,0.06 -0.05,0.06 -0.06,0.05 -0.05,0.05 -0.06,0.04 -0.07,0.05 -0.06,0.04 -0.07,0.04 -0.06,0.03 -0.08,0.04 -0.07,0.02 -0.07,0.03 -0.08,0.02 -0.07,0.02 -0.08,0.01 -0.08,0.01 -0.08,0.01 -0.08,0 c -0.88,0 -1.59,-0.71 -1.59,-1.59 0,-0.87 0.71,-1.58 1.59,-1.58 0.87,0 1.58,0.71 1.58,1.58 z"
         id="path3530" /><path
         style="stroke-width:0.4136638"
         inkscape:connector-curvature="0"
         d="m 363.78,455.01 0,0.08 0,0.09 -0.01,0.07 -0.02,0.08 -0.02,0.08 -0.02,0.08 -0.02,0.07 -0.03,0.07 -0.03,0.07 -0.04,0.07 -0.04,0.07 -0.04,0.06 -0.04,0.06 -0.05,0.06 -0.05,0.06 -0.05,0.06 -0.06,0.05 -0.05,0.05 -0.06,0.04 -0.07,0.05 -0.06,0.04 -0.07,0.04 -0.06,0.03 -0.08,0.04 -0.07,0.02 -0.07,0.03 -0.08,0.02 -0.07,0.02 -0.08,0.01 -0.08,0.01 -0.08,0.01 -0.08,0 c -0.88,0 -1.59,-0.71 -1.59,-1.59 0,-0.87 0.71,-1.58 1.59,-1.58 0.87,0 1.58,0.71 1.58,1.58 z"
         id="path3532" /><g
         ns0:preamble="/home/oroszll1/Desktop/laborjegyzet/preamble.tex"
         ns0:text="$\\mathrm{jel}$"
         word-spacing="normal"
         letter-spacing="normal"
         font-size-adjust="none"
         font-stretch="normal"
         font-weight="normal"
         font-variant="normal"
         font-style="normal"
         stroke-miterlimit="10.433"
         xml:space="preserve"
         transform="translate(3.0329153,-12.245)"
         id="g3800"
         style="font-style:normal;font-variant:normal;font-weight:normal;font-stretch:normal;letter-spacing:normal;word-spacing:normal;text-anchor:start;fill:none;fill-opacity:1;fill-rule:evenodd;stroke:#000000;stroke-linecap:butt;stroke-linejoin:miter;stroke-miterlimit:10.43299961;stroke-dasharray:none;stroke-dashoffset:0;stroke-opacity:1"><path
           id="path3802"
           d="m 92.089,497.57 -1.512,-0.11 0,-0.31 c 0.766,0 0.856,-0.07 0.856,-0.56 l 0,-3.93 c 0,-0.45 -0.09,-1.3 -0.727,-1.3 -0.049,0 -0.278,0 -0.537,0.13 0.149,0.04 0.348,0.18 0.348,0.44 0,0.26 -0.179,0.46 -0.457,0.46 -0.279,0 -0.458,-0.2 -0.458,-0.46 0,-0.51 0.557,-0.79 1.124,-0.79 0.747,0 1.363,0.63 1.363,1.54 z"
           inkscape:connector-curvature="0"
           style="fill:#000000;stroke-width:0" /><path
           id="path3804"
           d="m 92.089,499.3 0,0.02 -0.002,0.03 -0.004,0.02 -0.005,0.03 -0.005,0.03 -0.008,0.02 -0.008,0.02 -0.01,0.03 -0.01,0.02 -0.012,0.02 -0.013,0.03 -0.013,0.02 -0.015,0.02 -0.016,0.02 -0.017,0.02 -0.017,0.02 -0.019,0.01 -0.019,0.02 -0.02,0.02 -0.02,0.01 -0.022,0.01 -0.022,0.02 -0.023,0.01 -0.023,0.01 -0.024,0.01 -0.024,0.01 -0.025,0.01 -0.026,0 -0.025,0.01 -0.027,0 -0.026,0 -0.027,0 c -0.289,0 -0.527,-0.24 -0.527,-0.52 0,-0.29 0.238,-0.53 0.527,-0.53 0.289,0 0.527,0.24 0.527,0.53 z"
           inkscape:connector-curvature="0"
           style="fill:#000000;stroke-width:0" /><path
           id="path3806"
           d="m 94.149,495.47 0.01,0.21 c 0.06,1.48 0.895,1.73 1.234,1.73 1.024,0 1.124,-1.34 1.124,-1.73 l -2.358,0 -0.01,-0.21 2.776,0 c 0.219,0 0.248,0 0.248,0.21 0,0.98 -0.537,1.95 -1.78,1.95 -1.154,0 -2.07,-1.03 -2.07,-2.27 0,-1.33 1.045,-2.29 2.189,-2.29 1.214,0 1.661,1.1 1.661,1.29 0,0.1 -0.079,0.12 -0.129,0.12 -0.089,0 -0.109,-0.06 -0.129,-0.14 -0.348,-1.02 -1.244,-1.02 -1.343,-1.02 -0.498,0 -0.896,0.29 -1.125,0.66 -0.298,0.48 -0.298,1.13 -0.298,1.49 z"
           inkscape:connector-curvature="0"
           style="fill:#000000;stroke-width:0" /><path
           id="path3808"
           d="m 99.233,500.07 -1.433,-0.11 0,-0.31 c 0.697,0 0.776,-0.07 0.776,-0.55 l 0,-5.17 c 0,-0.45 -0.109,-0.45 -0.776,-0.45 l 0,-0.3 c 0.329,0.01 0.856,0.03 1.105,0.03 0.248,0 0.736,-0.02 1.105,-0.03 l 0,0.3 c -0.668,0 -0.777,0 -0.777,0.45 z"
           inkscape:connector-curvature="0"
           style="fill:#000000;stroke-width:0" /></g></g>    <g
       ns0:preamble="/home/oroszll1/Desktop/laborjegyzet/preamble.tex"
       ns0:text="$10$"
       word-spacing="normal"
       letter-spacing="normal"
       font-size-adjust="none"
       font-stretch="normal"
       font-weight="normal"
       font-variant="normal"
       font-style="normal"
       stroke-miterlimit="10.433"
       xml:space="preserve"
       transform="matrix(1,0,0,-1,90.434978,769.84529)"
       id="g3532"
       style="font-style:normal;font-variant:normal;font-weight:normal;font-stretch:normal;letter-spacing:normal;word-spacing:normal;text-anchor:start;fill:none;fill-opacity:1;fill-rule:evenodd;stroke:#000000;stroke-linecap:butt;stroke-linejoin:miter;stroke-miterlimit:10.43299961;stroke-dasharray:none;stroke-dashoffset:0;stroke-opacity:1"><path
         id="path3534"
         d="m 92.925,499.53 0,0.01 0,0.02 0,0.01 0,0.01 0,0.01 0,0.01 0,0 0,0.01 -10e-4,0.01 0,0.01 0,0.01 0,0.01 -0.001,0 0,0.01 -0.001,0.01 0,0 -10e-4,0.01 -0.001,0.01 -0.002,0.01 -0.002,0.01 -0.003,0.01 -0.003,0.01 -0.004,0.01 -0.004,0.01 -0.005,0 -0.006,0.01 -0.007,0 -0.007,0.01 -0.008,0 -0.009,0.01 -0.004,0 -0.005,0 -0.005,0 -0.006,0 -0.006,0 -0.005,0.01 -0.007,0 -0.006,0 -0.007,0 -0.007,0 -0.007,0 -0.007,0 -0.008,0 -0.008,0 -0.009,0 -0.008,0 -0.009,0 -0.009,0 -0.01,0 -0.01,0 -0.01,0 -0.011,0 c -0.617,-0.63 -1.492,-0.63 -1.811,-0.63 l 0,-0.31 c 0.2,0 0.786,0 1.304,0.26 l 0,-5.15 c 0,-0.36 -0.03,-0.48 -0.926,-0.48 l -0.318,0 0,-0.3 c 0.348,0.03 1.214,0.03 1.612,0.03 0.398,0 1.264,0 1.612,-0.03 l 0,0.3 -0.319,0 c -0.895,0 -0.925,0.11 -0.925,0.48 z"
         inkscape:connector-curvature="0"
         style="fill:#000000;stroke-width:0" /><path
         id="path3536"
         d="m 99.558,496.36 -0.001,0.14 -0.002,0.15 -0.004,0.15 -0.006,0.15 -0.009,0.15 -0.012,0.15 -0.016,0.14 -0.019,0.15 -0.023,0.15 -0.027,0.14 -0.032,0.14 -0.038,0.15 -0.043,0.14 -0.049,0.14 -0.055,0.14 -0.03,0.07 -0.032,0.07 c -0.458,0.95 -1.274,1.11 -1.691,1.11 -0.597,0 -1.324,-0.26 -1.732,-1.18 -0.318,-0.69 -0.368,-1.46 -0.368,-2.25 0,-0.75 0.04,-1.64 0.448,-2.4 0.428,-0.8 1.154,-1 1.642,-1 l 0,0.22 c -0.388,0 -0.975,0.24 -1.154,1.2 -0.11,0.59 -0.11,1.51 -0.11,2.09 0,0.64 0,1.3 0.08,1.83 0.189,1.18 0.935,1.27 1.184,1.27 0.328,0 0.985,-0.18 1.174,-1.16 0.099,-0.55 0.099,-1.31 0.099,-1.94 0,-0.74 0,-1.42 -0.109,-2.05 -0.149,-0.95 -0.717,-1.24 -1.164,-1.24 l 0,0 0,-0.22 c 0.537,0 1.293,0.21 1.731,1.15 0.318,0.69 0.368,1.46 0.368,2.25 z"
         inkscape:connector-curvature="0"
         style="fill:#000000;stroke-width:0" /></g>    <g
       id="g3752"
       transform="matrix(1,0,0,-1,145.30626,769.84529)"
       xml:space="preserve"
       stroke-miterlimit="10.433"
       font-style="normal"
       font-variant="normal"
       font-weight="normal"
       font-stretch="normal"
       font-size-adjust="none"
       letter-spacing="normal"
       word-spacing="normal"
       ns0:text="$33$"
       ns0:preamble="/home/oroszll1/Desktop/laborjegyzet/preamble.tex"
       style="font-style:normal;font-variant:normal;font-weight:normal;font-stretch:normal;letter-spacing:normal;word-spacing:normal;text-anchor:start;fill:none;fill-opacity:1;fill-rule:evenodd;stroke:#000000;stroke-linecap:butt;stroke-linejoin:miter;stroke-miterlimit:10.43299961;stroke-dasharray:none;stroke-dashoffset:0;stroke-opacity:1"><path
         style="fill:#000000;stroke-width:0"
         inkscape:connector-curvature="0"
         d="m 92.885,496.67 0.076,0.03 0.074,0.03 0.073,0.03 0.071,0.03 0.07,0.04 0.068,0.04 0.066,0.04 0.064,0.04 0.062,0.04 0.061,0.05 0.058,0.05 0.057,0.05 0.054,0.05 0.052,0.05 0.049,0.06 0.048,0.05 0.045,0.06 0.042,0.06 0.04,0.06 0.038,0.06 0.034,0.07 0.032,0.06 0.03,0.07 0.026,0.06 0.024,0.07 0.021,0.07 0.017,0.07 0.015,0.07 0.011,0.07 0.009,0.07 0.005,0.08 0.001,0.07 c 0,0.82 -0.875,1.37 -1.83,1.37 -1.005,0 -1.761,-0.59 -1.761,-1.35 0,-0.33 0.218,-0.52 0.507,-0.52 0.308,0 0.507,0.22 0.507,0.51 0,0.5 -0.467,0.5 -0.616,0.5 0.308,0.48 0.964,0.61 1.323,0.61 0.408,0 0.955,-0.21 0.955,-1.11 0,-0.12 -0.02,-0.69 -0.279,-1.13 -0.298,-0.48 -0.636,-0.51 -0.885,-0.52 -0.08,-0.01 -0.319,-0.03 -0.388,-0.03 -0.08,-0.01 -0.15,-0.02 -0.15,-0.12 0,-0.11 0.07,-0.11 0.239,-0.11 l 0.438,0 c 0.816,0 1.184,-0.67 1.184,-1.64 0,-1.36 -0.686,-1.64 -1.124,-1.64 -0.428,0 -1.174,0.16 -1.522,0.75 0.348,-0.05 0.656,0.17 0.656,0.55 0,0.35 -0.269,0.55 -0.557,0.55 -0.239,0 -0.557,-0.14 -0.557,-0.57 0,-0.91 0.925,-1.56 2.01,-1.56 1.213,0 2.119,0.9 2.119,1.92 0,0.81 -0.627,1.58 -1.662,1.79 z"
         id="path3754" /><path
         style="fill:#000000;stroke-width:0"
         inkscape:connector-curvature="0"
         d="m 97.867,496.67 0.075,0.03 0.075,0.03 0.072,0.03 0.072,0.03 0.069,0.04 0.068,0.04 0.066,0.04 0.064,0.04 0.063,0.04 0.06,0.05 0.059,0.05 0.056,0.05 0.054,0.05 0.052,0.05 0.05,0.06 0.047,0.05 0.045,0.06 0.042,0.06 0.04,0.06 0.038,0.06 0.035,0.07 0.032,0.06 0.029,0.07 0.027,0.06 0.023,0.07 0.021,0.07 0.018,0.07 0.014,0.07 0.012,0.07 0.008,0.07 0.005,0.08 0.001,0.07 c 0,0.82 -0.875,1.37 -1.83,1.37 -1.005,0 -1.761,-0.59 -1.761,-1.35 0,-0.33 0.219,-0.52 0.507,-0.52 0.309,0 0.508,0.22 0.508,0.51 0,0.5 -0.468,0.5 -0.617,0.5 0.308,0.48 0.965,0.61 1.323,0.61 0.408,0 0.955,-0.21 0.955,-1.11 0,-0.12 -0.02,-0.69 -0.278,-1.13 -0.299,-0.48 -0.637,-0.51 -0.886,-0.52 -0.079,-0.01 -0.318,-0.03 -0.388,-0.03 -0.079,-0.01 -0.149,-0.02 -0.149,-0.12 0,-0.11 0.07,-0.11 0.239,-0.11 l 0.437,0 c 0.816,0 1.184,-0.67 1.184,-1.64 0,-1.36 -0.686,-1.64 -1.124,-1.64 -0.428,0 -1.174,0.16 -1.522,0.75 0.348,-0.05 0.656,0.17 0.656,0.55 0,0.35 -0.268,0.55 -0.557,0.55 -0.238,0 -0.557,-0.14 -0.557,-0.57 0,-0.91 0.925,-1.56 2.01,-1.56 1.214,0 2.119,0.9 2.119,1.92 0,0.81 -0.627,1.58 -1.661,1.79 z"
         id="path3756" /></g>    <g
       style="font-style:normal;font-variant:normal;font-weight:normal;font-stretch:normal;letter-spacing:normal;word-spacing:normal;text-anchor:start;fill:none;fill-opacity:1;fill-rule:evenodd;stroke:#000000;stroke-linecap:butt;stroke-linejoin:miter;stroke-miterlimit:10.43299961;stroke-dasharray:none;stroke-dashoffset:0;stroke-opacity:1"
       ns0:preamble="/home/oroszll1/Desktop/laborjegyzet/preamble.tex"
       ns0:text="$51$"
       word-spacing="normal"
       letter-spacing="normal"
       font-size-adjust="none"
       font-stretch="normal"
       font-weight="normal"
       font-variant="normal"
       font-style="normal"
       stroke-miterlimit="10.433"
       xml:space="preserve"
       transform="matrix(1,0,0,-1,200.07372,769.84529)"
       id="g3978"><path
         id="path3980"
         d="m 94.467,495.17 -0.002,0.11 -0.007,0.11 -0.012,0.11 -0.016,0.11 -0.02,0.1 -0.025,0.1 -0.029,0.1 -0.033,0.1 -0.037,0.1 -0.041,0.09 -0.044,0.09 -0.049,0.09 -0.051,0.09 -0.056,0.08 -0.058,0.08 -0.062,0.07 -0.065,0.08 -0.068,0.07 -0.071,0.06 -0.074,0.06 -0.076,0.06 -0.08,0.05 -0.081,0.05 -0.085,0.04 -0.086,0.04 -0.089,0.04 -0.091,0.03 -0.092,0.02 -0.095,0.02 -0.097,0.02 -0.098,0.01 -0.1,0 c -0.478,0 -0.906,-0.16 -1.264,-0.51 l 0,1.94 c 0.199,-0.06 0.528,-0.13 0.846,-0.13 1.224,0 1.92,0.9 1.92,1.03 0,0.06 -0.03,0.11 -0.099,0.11 -0.01,0 -0.03,0 -0.08,-0.03 -0.199,-0.09 -0.686,-0.29 -1.353,-0.29 -0.398,0 -0.856,0.07 -1.323,0.28 -0.08,0.03 -0.1,0.03 -0.12,0.03 -0.099,0 -0.099,-0.08 -0.099,-0.24 l 0,-2.94 c 0,-0.18 0,-0.25 0.139,-0.25 0.07,0 0.09,0.03 0.129,0.08 0.11,0.16 0.478,0.7 1.284,0.7 0.517,0 0.766,-0.46 0.846,-0.64 0.159,-0.36 0.179,-0.75 0.179,-1.25 0,-0.35 0,-0.94 -0.239,-1.36 -0.239,-0.39 -0.607,-0.64 -1.065,-0.64 -0.726,0 -1.293,0.52 -1.462,1.11 0.03,-0.01 0.06,-0.02 0.169,-0.02 0.328,0 0.497,0.25 0.497,0.49 0,0.23 -0.169,0.48 -0.497,0.48 -0.139,0 -0.488,-0.07 -0.488,-0.53 0,-0.85 0.687,-1.81 1.801,-1.81 1.154,0 2.169,0.95 2.169,2.21 z"
         inkscape:connector-curvature="0"
         style="fill:#000000;stroke-width:0" /><path
         id="path3982"
         d="m 97.906,499.53 0,0.01 0,0.02 0,0.01 0,0.01 0,0.01 0,0.01 0,0 0,0.01 0,0.01 0,0.01 -0.001,0.01 0,0.01 -0.001,0 0,0.01 -10e-4,0.01 0,0 -0.001,0.01 -0.001,0.01 -0.002,0.01 -0.002,0.01 -0.003,0.01 -0.003,0.01 -0.004,0.01 -0.004,0.01 -0.005,0 -0.006,0.01 -0.006,0 -0.008,0.01 -0.007,0 -0.009,0.01 -0.005,0 -0.005,0 -0.005,0 -0.006,0 -0.005,0 -0.006,0.01 -0.006,0 -0.007,0 -0.006,0 -0.007,0 -0.008,0 -0.007,0 -0.008,0 -0.008,0 -0.008,0 -0.009,0 -0.009,0 -0.009,0 -0.01,0 -0.01,0 -0.01,0 -0.011,0 c -0.616,-0.63 -1.492,-0.63 -1.81,-0.63 l 0,-0.31 c 0.199,0 0.786,0 1.303,0.26 l 0,-5.15 c 0,-0.36 -0.03,-0.48 -0.925,-0.48 l -0.319,0 0,-0.3 c 0.349,0.03 1.214,0.03 1.612,0.03 0.398,0 1.264,0 1.612,-0.03 l 0,0.3 -0.318,0 c -0.896,0 -0.926,0.11 -0.926,0.48 z"
         inkscape:connector-curvature="0"
         style="fill:#000000;stroke-width:0" /></g>    <g
       id="g4210"
       transform="matrix(1,0,0,-1,252.00632,769.84529)"
       xml:space="preserve"
       stroke-miterlimit="10.433"
       font-style="normal"
       font-variant="normal"
       font-weight="normal"
       font-stretch="normal"
       font-size-adjust="none"
       letter-spacing="normal"
       word-spacing="normal"
       ns0:text="$220$"
       ns0:preamble="/home/oroszll1/Desktop/laborjegyzet/preamble.tex"
       style="font-style:normal;font-variant:normal;font-weight:normal;font-stretch:normal;letter-spacing:normal;word-spacing:normal;text-anchor:start;fill:none;fill-opacity:1;fill-rule:evenodd;stroke:#000000;stroke-linecap:butt;stroke-linejoin:miter;stroke-miterlimit:10.43299961;stroke-dasharray:none;stroke-dashoffset:0;stroke-opacity:1"><path
         d="m 91.263,493.94 1.055,1.02 c 1.552,1.37 2.149,1.91 2.149,2.9 0,1.14 -0.895,1.93 -2.109,1.93 -1.124,0 -1.861,-0.91 -1.861,-1.8 0,-0.55 0.498,-0.55 0.528,-0.55 0.169,0 0.517,0.12 0.517,0.52 0,0.26 -0.179,0.52 -0.527,0.52 -0.08,0 -0.1,0 -0.13,-0.01 0.229,0.65 0.766,1.01 1.344,1.01 0.905,0 1.333,-0.8 1.333,-1.62 0,-0.79 -0.498,-1.57 -1.045,-2.19 l -1.91,-2.13 c -0.11,-0.11 -0.11,-0.13 -0.11,-0.36 l 3.692,0 0.278,1.72 -0.249,0 c -0.049,-0.29 -0.119,-0.73 -0.218,-0.88 -0.07,-0.08 -0.727,-0.08 -0.946,-0.08 z"
         id="path4212"
         inkscape:connector-curvature="0"
         style="fill:#000000;stroke-width:0" /><path
         d="m 96.245,493.94 1.054,1.02 c 1.553,1.37 2.15,1.91 2.15,2.9 0,1.14 -0.896,1.93 -2.11,1.93 -1.124,0 -1.86,-0.91 -1.86,-1.8 0,-0.55 0.497,-0.55 0.527,-0.55 0.169,0 0.517,0.12 0.517,0.52 0,0.26 -0.179,0.52 -0.527,0.52 -0.079,0 -0.099,0 -0.129,-0.01 0.229,0.65 0.766,1.01 1.343,1.01 0.905,0 1.333,-0.8 1.333,-1.62 0,-0.79 -0.497,-1.57 -1.045,-2.19 l -1.91,-2.13 c -0.109,-0.11 -0.109,-0.13 -0.109,-0.36 l 3.691,0 0.279,1.72 -0.249,0 c -0.05,-0.29 -0.12,-0.73 -0.219,-0.88 -0.07,-0.08 -0.726,-0.08 -0.945,-0.08 z"
         id="path4214"
         inkscape:connector-curvature="0"
         style="fill:#000000;stroke-width:0" /><path
         d="m 104.54,496.36 0,0.14 0,0.15 -0.01,0.15 0,0.15 -0.01,0.15 -0.02,0.15 -0.01,0.14 -0.02,0.15 -0.02,0.15 -0.03,0.14 -0.03,0.14 -0.04,0.15 -0.04,0.14 -0.05,0.14 -0.06,0.14 -0.03,0.07 -0.03,0.07 c -0.46,0.95 -1.27,1.11 -1.69,1.11 -0.6,0 -1.32,-0.26 -1.73,-1.18 -0.32,-0.69 -0.37,-1.46 -0.37,-2.25 0,-0.75 0.04,-1.64 0.45,-2.4 0.43,-0.8 1.15,-1 1.64,-1 l 0,0.22 c -0.39,0 -0.98,0.24 -1.15,1.2 -0.11,0.59 -0.11,1.51 -0.11,2.09 0,0.64 0,1.3 0.08,1.83 0.18,1.18 0.93,1.27 1.18,1.27 0.33,0 0.99,-0.18 1.17,-1.16 0.1,-0.55 0.1,-1.31 0.1,-1.94 0,-0.74 0,-1.42 -0.11,-2.05 -0.14,-0.95 -0.71,-1.24 -1.16,-1.24 l 0,0 0,-0.22 c 0.54,0 1.29,0.21 1.73,1.15 0.32,0.69 0.37,1.46 0.37,2.25 z"
         id="path4216"
         inkscape:connector-curvature="0"
         style="fill:#000000;stroke-width:0" /></g>    <g
       style="font-style:normal;font-variant:normal;font-weight:normal;font-stretch:normal;letter-spacing:normal;word-spacing:normal;text-anchor:start;fill:none;fill-opacity:1;fill-rule:evenodd;stroke:#000000;stroke-linecap:butt;stroke-linejoin:miter;stroke-miterlimit:10.43299961;stroke-dasharray:none;stroke-dashoffset:0;stroke-opacity:1"
       ns0:preamble="/home/oroszll1/Desktop/laborjegyzet/preamble.tex"
       ns0:text="$510$"
       word-spacing="normal"
       letter-spacing="normal"
       font-size-adjust="none"
       font-stretch="normal"
       font-weight="normal"
       font-variant="normal"
       font-style="normal"
       stroke-miterlimit="10.433"
       xml:space="preserve"
       transform="matrix(1,0,0,-1,306.62428,769.84529)"
       id="g4454"><path
         id="path4456"
         d="m 94.467,495.17 -0.002,0.11 -0.007,0.11 -0.012,0.11 -0.016,0.11 -0.02,0.1 -0.025,0.1 -0.029,0.1 -0.033,0.1 -0.037,0.1 -0.041,0.09 -0.044,0.09 -0.049,0.09 -0.051,0.09 -0.056,0.08 -0.058,0.08 -0.062,0.07 -0.065,0.08 -0.068,0.07 -0.071,0.06 -0.074,0.06 -0.076,0.06 -0.08,0.05 -0.081,0.05 -0.085,0.04 -0.086,0.04 -0.089,0.04 -0.091,0.03 -0.092,0.02 -0.095,0.02 -0.097,0.02 -0.098,0.01 -0.1,0 c -0.478,0 -0.906,-0.16 -1.264,-0.51 l 0,1.94 c 0.199,-0.06 0.528,-0.13 0.846,-0.13 1.224,0 1.92,0.9 1.92,1.03 0,0.06 -0.03,0.11 -0.099,0.11 -0.01,0 -0.03,0 -0.08,-0.03 -0.199,-0.09 -0.686,-0.29 -1.353,-0.29 -0.398,0 -0.856,0.07 -1.323,0.28 -0.08,0.03 -0.1,0.03 -0.12,0.03 -0.099,0 -0.099,-0.08 -0.099,-0.24 l 0,-2.94 c 0,-0.18 0,-0.25 0.139,-0.25 0.07,0 0.09,0.03 0.129,0.08 0.11,0.16 0.478,0.7 1.284,0.7 0.517,0 0.766,-0.46 0.846,-0.64 0.159,-0.36 0.179,-0.75 0.179,-1.25 0,-0.35 0,-0.94 -0.239,-1.36 -0.239,-0.39 -0.607,-0.64 -1.065,-0.64 -0.726,0 -1.293,0.52 -1.462,1.11 0.03,-0.01 0.06,-0.02 0.169,-0.02 0.328,0 0.497,0.25 0.497,0.49 0,0.23 -0.169,0.48 -0.497,0.48 -0.139,0 -0.488,-0.07 -0.488,-0.53 0,-0.85 0.687,-1.81 1.801,-1.81 1.154,0 2.169,0.95 2.169,2.21 z"
         inkscape:connector-curvature="0"
         style="fill:#000000;stroke-width:0" /><path
         id="path4458"
         d="m 97.906,499.53 0,0.01 0,0.02 0,0.01 0,0.01 0,0.01 0,0.01 0,0 0,0.01 0,0.01 0,0.01 -0.001,0.01 0,0.01 -0.001,0 0,0.01 -10e-4,0.01 0,0 -0.001,0.01 -0.001,0.01 -0.002,0.01 -0.002,0.01 -0.003,0.01 -0.003,0.01 -0.004,0.01 -0.004,0.01 -0.005,0 -0.006,0.01 -0.006,0 -0.008,0.01 -0.007,0 -0.009,0.01 -0.005,0 -0.005,0 -0.005,0 -0.006,0 -0.005,0 -0.006,0.01 -0.006,0 -0.007,0 -0.006,0 -0.007,0 -0.008,0 -0.007,0 -0.008,0 -0.008,0 -0.008,0 -0.009,0 -0.009,0 -0.009,0 -0.01,0 -0.01,0 -0.01,0 -0.011,0 c -0.616,-0.63 -1.492,-0.63 -1.81,-0.63 l 0,-0.31 c 0.199,0 0.786,0 1.303,0.26 l 0,-5.15 c 0,-0.36 -0.03,-0.48 -0.925,-0.48 l -0.319,0 0,-0.3 c 0.349,0.03 1.214,0.03 1.612,0.03 0.398,0 1.264,0 1.612,-0.03 l 0,0.3 -0.318,0 c -0.896,0 -0.926,0.11 -0.926,0.48 z"
         inkscape:connector-curvature="0"
         style="fill:#000000;stroke-width:0" /><path
         id="path4460"
         d="m 104.54,496.36 0,0.14 0,0.15 -0.01,0.15 0,0.15 -0.01,0.15 -0.02,0.15 -0.01,0.14 -0.02,0.15 -0.02,0.15 -0.03,0.14 -0.03,0.14 -0.04,0.15 -0.04,0.14 -0.05,0.14 -0.06,0.14 -0.03,0.07 -0.03,0.07 c -0.46,0.95 -1.27,1.11 -1.69,1.11 -0.6,0 -1.32,-0.26 -1.73,-1.18 -0.32,-0.69 -0.37,-1.46 -0.37,-2.25 0,-0.75 0.04,-1.64 0.45,-2.4 0.43,-0.8 1.15,-1 1.64,-1 l 0,0.22 c -0.39,0 -0.98,0.24 -1.15,1.2 -0.11,0.59 -0.11,1.51 -0.11,2.09 0,0.64 0,1.3 0.08,1.83 0.18,1.18 0.93,1.27 1.18,1.27 0.33,0 0.99,-0.18 1.17,-1.16 0.1,-0.55 0.1,-1.31 0.1,-1.94 0,-0.74 0,-1.42 -0.11,-2.05 -0.14,-0.95 -0.71,-1.24 -1.16,-1.24 l 0,0 0,-0.22 c 0.54,0 1.29,0.21 1.73,1.15 0.32,0.69 0.37,1.46 0.37,2.25 z"
         inkscape:connector-curvature="0"
         style="fill:#000000;stroke-width:0" /></g>  </g>
</svg>
